{
  "source": "C:\\Users\\Peter\\Desktop\\stuff\\MIUN\\quantitative_research\\video_compression\\videos\\BVI-HD\\BVI-HD_CDVL_videos\\ORIG\\BallUnderWater_1920x1080_60fps.mp4",
  "output": "C:\\Users\\Peter\\Desktop\\stuff\\MIUN\\quantitative_research\\video_compression\\compressed_videos\\BVI-HD\\av1\\2.5\\BallUnderWater_1920x1080_60fps_av1.mkv",
  "codec": "av1",
  "ok": "Input #0, mov,mp4,m4a,3gp,3g2,mj2, from 'C:\\Users\\Peter\\Desktop\\stuff\\MIUN\\quantitative_research\\video_compression\\videos\\BVI-HD\\BVI-HD_CDVL_videos\\ORIG\\BallUnderWater_1920x1080_60fps.mp4':\n  Metadata:\n    major_brand     : isom\n    minor_version   : 512\n    compatible_brands: isomiso2avc1mp41\n    encoder         : Lavf54.28.101\n  Duration: 00:00:05.00, start: 0.000000, bitrate: 212030 kb/s\n  Stream #0:0[0x1](und): Video: h264 (High 4:4:4 Predictive) (avc1 / 0x31637661), yuv420p(progressive), 1920x1080, 212025 kb/s, 60 fps, 60 tbr, 60 tbn (default)\n    Metadata:\n      handler_name    : VideoHandler\n      vendor_id       : [0][0][0][0]\n[out#0/matroska @ 00000222b29ca0c0] Codec AVOption b:a (set bitrate (in bits/s)) has not been used for any stream. The most likely reason is either wrong type (e.g. a video option with no video streams) or that it is a private option of some decoder which was not actually used for any stream.\nStream mapping:\n  Stream #0:0 -> #0:0 (h264 (native) -> av1 (libsvtav1))\nPress [q] to stop, [?] for help\nSvt[info]: -------------------------------------------\nSvt[info]: SVT [version]:\tSVT-AV1 Encoder Lib v3.1.0-19-g6ecfe8ec\nSvt[info]: SVT [build]  :\tGCC 15.2.0\t 64 bit\nSvt[info]: LIB Build date: Aug 17 2025 11:37:13\nSvt[info]: -------------------------------------------\nSvt[info]: Level of Parallelism: 5\nSvt[info]: Number of PPCS 93\nSvt[info]: [asm level on system : up to avx2]\nSvt[info]: [asm level selected : up to avx2]\nSvt[info]: -------------------------------------------\nSvt[info]: SVT [config]: main profile\ttier (auto)\tlevel (auto)\nSvt[info]: SVT [config]: width / height / fps numerator / fps denominator \t\t: 1920 / 1080 / 60 / 1\nSvt[info]: SVT [config]: bit-depth / color format \t\t\t\t\t: 8 / YUV420\nSvt[info]: SVT [config]: preset / tune / pred struct \t\t\t\t\t: 4 / PSNR / random access\nSvt[info]: SVT [config]: gop size / mini-gop size / key-frame type \t\t\t: 321 / 16 / key frame\nSvt[info]: SVT [config]: BRC mode / target bitrate (kbps)\t\t\t\t: VBR / 2500 \nSvt[info]: SVT [config]: AQ mode / Variance Boost \t\t\t\t\t: 2 / 0\nSvt[info]: SVT [config]: sharpness / luminance-based QP bias \t\t\t\t: 0 / 0\nSvt[info]: SVT [config]: QP scale compress strength \t\t\t\t\t: 0\nSvt[info]: -------------------------------------------\nOutput #0, matroska, to 'C:\\Users\\Peter\\Desktop\\stuff\\MIUN\\quantitative_research\\video_compression\\compressed_videos\\BVI-HD\\av1\\2.5\\BallUnderWater_1920x1080_60fps_av1.mkv':\n  Metadata:\n    major_brand     : isom\n    minor_version   : 512\n    compatible_brands: isomiso2avc1mp41\n    encoder         : Lavf62.3.100\n  Stream #0:0(und): Video: av1 (AV01 / 0x31305641), yuv420p(tv, progressive), 1920x1080, q=2-31, 2500 kb/s, 60 fps, 1k tbn (default)\n    Metadata:\n      encoder         : Lavc62.11.100 libsvtav1\n      handler_name    : VideoHandler\n      vendor_id       : [0][0][0][0]\n    Side data:\n      cpb: bitrate max/min/avg: 0/0/2500000 buffer size: 2500000 vbv_delay: N/A\nframe=    0 fps=0.0 q=0.0 size=       0KiB time=N/A bitrate=N/A speed=N/A elapsed=0:00:01.98    \nframe=    0 fps=0.0 q=0.0 size=       0KiB time=N/A bitrate=N/A speed=N/A elapsed=0:00:02.84    \nframe=    0 fps=0.0 q=0.0 size=       0KiB time=N/A bitrate=N/A speed=N/A elapsed=0:00:03.56    \nframe=    0 fps=0.0 q=0.0 size=       0KiB time=N/A bitrate=N/A speed=N/A elapsed=0:00:04.26    \nframe=    0 fps=0.0 q=0.0 size=       0KiB time=N/A bitrate=N/A speed=N/A elapsed=0:00:04.97    \nframe=    0 fps=0.0 q=0.0 size=       0KiB time=N/A bitrate=N/A speed=N/A elapsed=0:00:05.62    \nframe=    0 fps=0.0 q=0.0 size=       0KiB time=N/A bitrate=N/A speed=N/A elapsed=0:00:06.20    \nframe=    0 fps=0.0 q=0.0 size=       0KiB time=N/A bitrate=N/A speed=N/A elapsed=0:00:06.77    \nframe=    0 fps=0.0 q=0.0 size=       0KiB time=N/A bitrate=N/A speed=N/A elapsed=0:00:07.29    \nframe=    1 fps=0.1 q=21.0 size=       1KiB time=00:00:00.00 bitrate=N/A speed=   0x elapsed=0:00:07.81    \nframe=    1 fps=0.1 q=21.0 size=       1KiB time=00:00:00.00 bitrate=N/A speed=   0x elapsed=0:00:08.33    \nframe=    1 fps=0.1 q=21.0 size=       1KiB time=00:00:00.00 bitrate=N/A speed=   0x elapsed=0:00:08.88    \nframe=    1 fps=0.1 q=21.0 size=       1KiB time=00:00:00.00 bitrate=N/A speed=   0x elapsed=0:00:09.42    \nframe=    1 fps=0.1 q=21.0 size=       1KiB time=00:00:00.00 bitrate=N/A speed=   0x elapsed=0:00:09.96    \nframe=    4 fps=0.4 q=42.0 size=       1KiB time=00:00:00.03 bitrate= 170.9kbits/s speed=0.00318x elapsed=0:00:10.47    \nframe=    6 fps=0.5 q=42.0 size=       1KiB time=00:00:00.08 bitrate=  68.4kbits/s speed=0.00749x elapsed=0:00:11.12    \nframe=    9 fps=0.8 q=35.0 size=       1KiB time=00:00:00.13 bitrate=  42.7kbits/s speed=0.0113x elapsed=0:00:11.76    \nframe=   11 fps=0.9 q=38.0 size=       1KiB time=00:00:00.16 bitrate=  34.2kbits/s speed=0.0134x elapsed=0:00:12.44    \nframe=   17 fps=1.3 q=28.0 size=       1KiB time=00:00:00.23 bitrate=  24.4kbits/s speed=0.0179x elapsed=0:00:13.03    \nframe=   20 fps=1.4 q=34.0 size=       1KiB time=00:00:00.30 bitrate=  19.0kbits/s speed=0.0215x elapsed=0:00:13.93    \nframe=   22 fps=1.5 q=34.0 size=       1KiB time=00:00:00.35 bitrate=  16.3kbits/s speed=0.0239x elapsed=0:00:14.67    \nframe=   25 fps=1.6 q=35.0 size=       1KiB time=00:00:00.40 bitrate=  14.2kbits/s speed=0.0262x elapsed=0:00:15.27    \nframe=   27 fps=1.7 q=38.0 size=       1KiB time=00:00:00.43 bitrate=  13.1kbits/s speed=0.0274x elapsed=0:00:15.84    \nframe=   30 fps=1.8 q=36.0 size=       1KiB time=00:00:00.48 bitrate=  11.8kbits/s speed=0.0292x elapsed=0:00:16.52    \nframe=   32 fps=1.9 q=37.0 size=       1KiB time=00:00:00.51 bitrate=  11.0kbits/s speed=0.0303x elapsed=0:00:17.05    \nframe=   34 fps=1.9 q=38.0 size=       1KiB time=00:00:00.55 bitrate=  10.4kbits/s speed=0.0312x elapsed=0:00:17.60    \nframe=   37 fps=2.0 q=36.0 size=       1KiB time=00:00:00.60 bitrate=   9.5kbits/s speed=0.0329x elapsed=0:00:18.21    \nframe=   39 fps=2.1 q=38.0 size=       1KiB time=00:00:00.63 bitrate=   9.0kbits/s speed=0.0337x elapsed=0:00:18.81    \nframe=   42 fps=2.2 q=38.0 size=       1KiB time=00:00:00.68 bitrate=   8.3kbits/s speed=0.035x elapsed=0:00:19.52    \nframe=   44 fps=2.2 q=38.0 size=       1KiB time=00:00:00.71 bitrate=   7.9kbits/s speed=0.0352x elapsed=0:00:20.35    \nframe=   48 fps=2.3 q=38.0 size=       1KiB time=00:00:00.76 bitrate=   7.4kbits/s speed=0.0367x elapsed=0:00:20.86    \nframe=   51 fps=2.4 q=38.0 size=       1KiB time=00:00:00.83 bitrate=   6.8kbits/s speed=0.0388x elapsed=0:00:21.48    \nframe=   53 fps=2.4 q=36.0 size=       1KiB time=00:00:00.86 bitrate=   6.6kbits/s speed=0.0394x elapsed=0:00:22.00    \nframe=   55 fps=2.4 q=36.0 size=       1KiB time=00:00:00.90 bitrate=   6.3kbits/s speed=0.04x elapsed=0:00:22.50    \nframe=   57 fps=2.5 q=33.0 size=       1KiB time=00:00:00.93 bitrate=   6.1kbits/s speed=0.0405x elapsed=0:00:23.03    \nframe=   59 fps=2.5 q=38.0 size=       1KiB time=00:00:00.96 bitrate=   5.9kbits/s speed=0.041x elapsed=0:00:23.58    \nframe=   61 fps=2.5 q=35.0 size=       1KiB time=00:00:01.00 bitrate=   5.7kbits/s speed=0.0414x elapsed=0:00:24.13    \nframe=   66 fps=2.7 q=37.0 size=       1KiB time=00:00:01.08 bitrate=   5.3kbits/s speed=0.044x elapsed=0:00:24.64    \nframe=   69 fps=2.7 q=36.0 size=       1KiB time=00:00:01.13 bitrate=   5.0kbits/s speed=0.045x elapsed=0:00:25.16    \nframe=   71 fps=2.8 q=36.0 size=       1KiB time=00:00:01.16 bitrate=   4.9kbits/s speed=0.0454x elapsed=0:00:25.69    \nframe=   75 fps=2.9 q=38.0 size=       1KiB time=00:00:01.23 bitrate=   4.6kbits/s speed=0.047x elapsed=0:00:26.25    \nframe=   77 fps=2.9 q=35.0 size=       1KiB time=00:00:01.26 bitrate=   4.5kbits/s speed=0.0473x elapsed=0:00:26.77    \nframe=   81 fps=3.0 q=18.0 size=       1KiB time=00:00:01.31 bitrate=   4.3kbits/s speed=0.0482x elapsed=0:00:27.29    \nframe=   83 fps=3.0 q=38.0 size=       1KiB time=00:00:01.36 bitrate=   4.2kbits/s speed=0.049x elapsed=0:00:27.87    \nframe=   85 fps=3.0 q=36.0 size=       1KiB time=00:00:01.40 bitrate=   4.1kbits/s speed=0.0493x elapsed=0:00:28.38    \nframe=   86 fps=3.0 q=33.0 size=       1KiB time=00:00:01.41 bitrate=   4.0kbits/s speed=0.049x elapsed=0:00:28.90    \nframe=   87 fps=2.9 q=35.0 size=       1KiB time=00:00:01.43 bitrate=   4.0kbits/s speed=0.0486x elapsed=0:00:29.50    \nframe=   90 fps=3.0 q=36.0 size=       1KiB time=00:00:01.48 bitrate=   3.8kbits/s speed=0.0492x elapsed=0:00:30.12    \nframe=   92 fps=3.0 q=36.0 size=       1KiB time=00:00:01.51 bitrate=   3.8kbits/s speed=0.0495x elapsed=0:00:30.64    \nframe=   96 fps=3.1 q=37.0 size=       1KiB time=00:00:01.58 bitrate=   3.6kbits/s speed=0.0508x elapsed=0:00:31.16    \nframe=   99 fps=3.1 q=38.0 size=       1KiB time=00:00:01.63 bitrate=   3.5kbits/s speed=0.0515x elapsed=0:00:31.68    \nframe=  101 fps=3.1 q=36.0 size=       1KiB time=00:00:01.66 bitrate=   3.4kbits/s speed=0.0516x elapsed=0:00:32.28    \nframe=  102 fps=3.1 q=35.0 size=       1KiB time=00:00:01.68 bitrate=   3.4kbits/s speed=0.0513x elapsed=0:00:32.81    \nframe=  103 fps=3.1 q=38.0 size=       1KiB time=00:00:01.70 bitrate=   3.4kbits/s speed=0.051x elapsed=0:00:33.33    \nframe=  107 fps=3.2 q=37.0 size=       1KiB time=00:00:01.76 bitrate=   3.2kbits/s speed=0.0522x elapsed=0:00:33.87    \nframe=  108 fps=3.1 q=34.0 size=       1KiB time=00:00:01.78 bitrate=   3.2kbits/s speed=0.0519x elapsed=0:00:34.39    \nframe=  112 fps=3.2 q=35.0 size=       1KiB time=00:00:01.85 bitrate=   3.1kbits/s speed=0.053x elapsed=0:00:34.93    \nframe=  115 fps=3.2 q=37.0 size=       1KiB time=00:00:01.90 bitrate=   3.0kbits/s speed=0.0536x elapsed=0:00:35.45    \nframe=  118 fps=3.3 q=36.0 size=       1KiB time=00:00:01.95 bitrate=   2.9kbits/s speed=0.0542x elapsed=0:00:35.97    \nframe=  119 fps=3.3 q=35.0 size=       1KiB time=00:00:01.96 bitrate=   2.9kbits/s speed=0.0539x elapsed=0:00:36.50    \nframe=  122 fps=3.3 q=35.0 size=       1KiB time=00:00:02.01 bitrate=   2.8kbits/s speed=0.0544x elapsed=0:00:37.07    \nframe=  123 fps=3.3 q=37.0 size=       1KiB time=00:00:02.03 bitrate=   2.8kbits/s speed=0.0541x elapsed=0:00:37.59    \nframe=  127 fps=3.3 q=36.0 size=       1KiB time=00:00:02.08 bitrate=   2.7kbits/s speed=0.0547x elapsed=0:00:38.11    \nframe=  129 fps=3.3 q=18.0 size=       1KiB time=00:00:02.13 bitrate=   2.7kbits/s speed=0.0552x elapsed=0:00:38.66    \nframe=  132 fps=3.4 q=37.0 size=       1KiB time=00:00:02.18 bitrate=   2.6kbits/s speed=0.0557x elapsed=0:00:39.19    \nframe=  135 fps=3.4 q=37.0 size=       1KiB time=00:00:02.23 bitrate=   2.6kbits/s speed=0.0562x elapsed=0:00:39.71    \nframe=  137 fps=3.4 q=28.0 size=       1KiB time=00:00:02.25 bitrate=   2.5kbits/s speed=0.0559x elapsed=0:00:40.23    \nframe=  140 fps=3.4 q=36.0 size=       1KiB time=00:00:02.31 bitrate=   2.5kbits/s speed=0.0567x elapsed=0:00:40.83    \nframe=  145 fps=3.5 q=18.0 size=       1KiB time=00:00:02.40 bitrate=   2.4kbits/s speed=0.058x elapsed=0:00:41.36    \nframe=  148 fps=3.5 q=36.0 size=       1KiB time=00:00:02.45 bitrate=   2.3kbits/s speed=0.0585x elapsed=0:00:41.86    \nframe=  150 fps=3.5 q=36.0 size=       1KiB time=00:00:02.48 bitrate=   2.3kbits/s speed=0.0586x elapsed=0:00:42.38    \nframe=  153 fps=3.6 q=28.0 size=       1KiB time=00:00:02.53 bitrate=   2.2kbits/s speed=0.059x elapsed=0:00:42.93    \nframe=  155 fps=3.6 q=37.0 size=       1KiB time=00:00:02.56 bitrate=   2.2kbits/s speed=0.059x elapsed=0:00:43.47    \nframe=  160 fps=3.6 q=37.0 size=       1KiB time=00:00:02.63 bitrate=   2.2kbits/s speed=0.0598x elapsed=0:00:44.01    \nframe=  163 fps=3.7 q=38.0 size=       1KiB time=00:00:02.70 bitrate=   2.1kbits/s speed=0.0606x elapsed=0:00:44.55    \nframe=  166 fps=3.7 q=36.0 size=       1KiB time=00:00:02.75 bitrate=   2.1kbits/s speed=0.061x elapsed=0:00:45.05    \nframe=  170 fps=3.7 q=37.0 size=       1KiB time=00:00:02.81 bitrate=   2.0kbits/s speed=0.0618x elapsed=0:00:45.59    \nframe=  173 fps=3.8 q=35.0 size=       1KiB time=00:00:02.86 bitrate=   2.0kbits/s speed=0.0621x elapsed=0:00:46.12    \nframe=  179 fps=3.8 q=38.0 size=       1KiB time=00:00:02.96 bitrate=   1.9kbits/s speed=0.0636x elapsed=0:00:46.68    \nframe=  181 fps=3.8 q=36.0 size=       1KiB time=00:00:03.00 bitrate=   1.9kbits/s speed=0.0635x elapsed=0:00:47.25    \nframe=  183 fps=3.8 q=37.0 size=       1KiB time=00:00:03.03 bitrate=   1.9kbits/s speed=0.0635x elapsed=0:00:47.77    \nframe=  186 fps=3.8 q=36.0 size=       1KiB time=00:00:03.08 bitrate=   1.8kbits/s speed=0.0638x elapsed=0:00:48.31    \nframe=  192 fps=3.9 q=32.0 size=       1KiB time=00:00:03.18 bitrate=   1.8kbits/s speed=0.0652x elapsed=0:00:48.84    \nframe=  195 fps=3.9 q=36.0 size=       1KiB time=00:00:03.23 bitrate=   1.8kbits/s speed=0.0655x elapsed=0:00:49.37    \nframe=  198 fps=4.0 q=36.0 size=       1KiB time=00:00:03.28 bitrate=   1.7kbits/s speed=0.0658x elapsed=0:00:49.90    \nframe=  205 fps=4.1 q=35.0 size=       1KiB time=00:00:03.40 bitrate=   1.7kbits/s speed=0.0674x elapsed=0:00:50.43    \nframe=  205 fps=4.0 q=35.0 size=       1KiB time=00:00:03.40 bitrate=   1.7kbits/s speed=0.0667x elapsed=0:00:50.94    \nframe=  207 fps=4.0 q=37.0 size=       1KiB time=00:00:03.43 bitrate=   1.7kbits/s speed=0.0667x elapsed=0:00:51.46    \nframe=  211 fps=4.1 q=38.0 size=       1KiB time=00:00:03.50 bitrate=   1.6kbits/s speed=0.0673x elapsed=0:00:51.98    \nframe=  213 fps=4.1 q=36.0 size=       1KiB time=00:00:03.53 bitrate=   1.6kbits/s speed=0.0673x elapsed=0:00:52.49    \nframe=  217 fps=4.1 q=31.0 size=       1KiB time=00:00:03.60 bitrate=   1.6kbits/s speed=0.0679x elapsed=0:00:53.00    \nframe=  217 fps=4.1 q=31.0 size=       1KiB time=00:00:03.60 bitrate=   1.6kbits/s speed=0.0673x elapsed=0:00:53.52    \nframe=  221 fps=4.1 q=35.0 size=       1KiB time=00:00:03.66 bitrate=   1.6kbits/s speed=0.0678x elapsed=0:00:54.05    \nframe=  225 fps=4.1 q=25.0 size=       1KiB time=00:00:03.73 bitrate=   1.5kbits/s speed=0.0684x elapsed=0:00:54.55    \nframe=  229 fps=4.2 q=37.0 size=       1KiB time=00:00:03.80 bitrate=   1.5kbits/s speed=0.069x elapsed=0:00:55.07    \nframe=  233 fps=4.2 q=32.0 size=       1KiB time=00:00:03.86 bitrate=   1.5kbits/s speed=0.0695x elapsed=0:00:55.59    \nframe=  235 fps=4.2 q=38.0 size=       1KiB time=00:00:03.90 bitrate=   1.5kbits/s speed=0.0695x elapsed=0:00:56.12    \nframe=  237 fps=4.2 q=35.0 size=       1KiB time=00:00:03.93 bitrate=   1.4kbits/s speed=0.0694x elapsed=0:00:56.64    \nframe=  241 fps=4.2 q=24.0 size=       1KiB time=00:00:04.00 bitrate=   1.4kbits/s speed=0.07x elapsed=0:00:57.15    \nframe=  245 fps=4.2 q=38.0 size=       1KiB time=00:00:04.06 bitrate=   1.4kbits/s speed=0.0705x elapsed=0:00:57.67    \nframe=  249 fps=4.3 q=34.0 size=       1KiB time=00:00:04.13 bitrate=   1.4kbits/s speed=0.071x elapsed=0:00:58.17    \nframe=  251 fps=4.3 q=39.0 size=       1KiB time=00:00:04.16 bitrate=   1.4kbits/s speed=0.071x elapsed=0:00:58.70    \nframe=  253 fps=4.3 q=36.0 size=       1KiB time=00:00:04.20 bitrate=   1.4kbits/s speed=0.0709x elapsed=0:00:59.22    \nframe=  257 fps=4.3 q=26.0 size=       1KiB time=00:00:04.26 bitrate=   1.3kbits/s speed=0.0714x elapsed=0:00:59.72    \nframe=  261 fps=4.3 q=38.0 size=       1KiB time=00:00:04.33 bitrate=   1.3kbits/s speed=0.0719x elapsed=0:01:00.25    \nframe=  265 fps=4.4 q=35.0 size=       1KiB time=00:00:04.40 bitrate=   1.3kbits/s speed=0.0724x elapsed=0:01:00.75    \nframe=  265 fps=4.3 q=35.0 size=       1KiB time=00:00:04.40 bitrate=   1.3kbits/s speed=0.0718x elapsed=0:01:01.27    \nframe=  269 fps=4.4 q=37.0 size=       1KiB time=00:00:04.46 bitrate=   1.3kbits/s speed=0.0723x elapsed=0:01:01.79    \nframe=  271 fps=4.3 q=39.0 size=       1KiB time=00:00:04.50 bitrate=   1.3kbits/s speed=0.0722x elapsed=0:01:02.30    \nframe=  277 fps=4.4 q=41.0 size=       1KiB time=00:00:04.60 bitrate=   1.2kbits/s speed=0.0732x elapsed=0:01:02.82    \nframe=  281 fps=4.4 q=37.0 size=       1KiB time=00:00:04.66 bitrate=   1.2kbits/s speed=0.0737x elapsed=0:01:03.34    \nframe=  283 fps=4.4 q=41.0 size=       1KiB time=00:00:04.70 bitrate=   1.2kbits/s speed=0.0736x elapsed=0:01:03.85    \nframe=  293 fps=4.6 q=37.0 size=       1KiB time=00:00:04.86 bitrate=   1.2kbits/s speed=0.0756x elapsed=0:01:04.37    \n[out#0/matroska @ 00000222b29ca0c0] video:1483KiB audio:0KiB subtitle:0KiB other streams:0KiB global headers:0KiB muxing overhead: 0.140249%\nframe=  300 fps=4.6 q=41.0 Lsize=    1485KiB time=00:00:04.98 bitrate=2441.5kbits/s speed=0.077x elapsed=0:01:04.71    \n",
  "seconds": 66.41574430465698,
  "probe_out": {}
}